<svg width="50" height="50" viewBox="0 0 50 50" fill="none" xmlns="http://www.w3.org/2000/svg">
<path d="M18.244 18.0957L18.4818 18.3334C18.3497 18.2013 18.1912 18.0428 18.0591 17.8843C18.1119 17.9635 18.1648 18.0428 18.244 18.0957Z" fill="white"/>
<path d="M32.6704 31.2006C34.9955 33.2086 38.219 33.8163 41.1518 32.7859L47.1759 30.6721C50.7164 29.4303 50.7164 24.4102 47.1759 23.1948L31.957 17.9369L35.9731 29.5096C35.9731 31.2534 34.0179 32.1782 32.6968 31.2006H32.6704Z" fill="#9EF2FF"/>
<path d="M17.3725 18.9675C17.3725 18.9675 17.2404 18.8354 17.1611 18.7825C17.3197 18.9146 17.4518 19.0467 17.6103 19.2053L17.3725 18.9675Z" fill="white"/>
<path d="M29.4203 36.0094L17.8477 31.9933L23.1056 47.2122C24.3474 50.7527 29.3411 50.7791 30.5829 47.2122L32.6966 41.1881C33.7271 38.2553 33.0929 35.0318 31.1113 32.7067C32.0889 34.0278 31.1642 35.983 29.4203 35.983V36.0094Z" fill="#9EF2FF"/>
<path d="M30.8999 32.4689L30.6621 32.2311C30.7942 32.3632 30.9527 32.5217 31.0848 32.6802C31.032 32.601 30.9792 32.5217 30.8999 32.4689Z" fill="white"/>
<path d="M2.62895 26.7355L17.8478 31.9934L29.4205 36.0095C31.1643 36.0095 32.0891 34.0543 31.1115 32.7332C30.9794 32.5747 30.8473 32.4426 30.6888 32.2841L27.756 29.3513L20.5428 22.1381L17.61 19.2053C17.4779 19.0732 17.3194 18.9147 17.1609 18.7826C14.8358 16.7745 11.6123 16.1668 8.67951 17.1973L2.65538 19.311C-0.885126 20.5528 -0.885126 25.573 2.65538 26.7884L2.62895 26.7355Z" fill="white"/>
<path d="M31.5342 31.3857L31.772 31.6235C31.772 31.6235 31.9041 31.7556 31.9833 31.8085C31.8248 31.6764 31.6927 31.5443 31.5342 31.3857Z" fill="white"/>
<path d="M32.6176 31.1478C33.9387 32.1254 35.8939 31.2007 35.8939 29.4569L31.8778 17.8842L26.6199 2.66529C25.378 -0.875208 20.3843 -0.90163 19.1425 2.66529L17.0288 8.68943C15.9983 11.6222 16.6325 14.8457 18.6141 17.1708C18.7462 17.3293 18.8783 17.4614 19.0368 17.62L21.9696 20.5528L29.1828 27.7659L32.1156 30.6987C32.2477 30.8308 32.4062 30.9893 32.5647 31.1214L32.6176 31.1478Z" fill="white"/>
</svg>
