<svg width="64" height="64" viewBox="0 0 64 64" fill="none" xmlns="http://www.w3.org/2000/svg">
<path d="M11.4165 17.256C11.4165 16.8417 11.0807 16.506 10.6665 16.506C10.2523 16.506 9.91651 16.8417 9.91651 17.256H10.6665H11.4165ZM10.6665 46.2746L11.4165 46.2755V46.2746H10.6665ZM11.9476 49.378L12.4785 48.8483V48.8483L11.9476 49.378ZM15.0478 50.6666L15.0469 51.4166H15.0478V50.6666ZM48.9518 50.6666V51.4166L48.9528 51.4166L48.9518 50.6666ZM52.0521 49.378L51.5211 48.8483V48.8483L52.0521 49.378ZM53.3332 46.2746H52.5832L52.5832 46.2755L53.3332 46.2746ZM53.3332 21.648L52.5832 21.647V21.648H53.3332ZM52.0521 18.5446L51.5211 19.0742V19.0742L52.0521 18.5446ZM48.9518 17.256L48.9528 16.506H48.9518V17.256ZM33.4292 16.506C33.015 16.506 32.6792 16.8417 32.6792 17.256C32.6792 17.6702 33.015 18.006 33.4292 18.006V17.256V16.506ZM9.91651 17.256C9.91651 17.6702 10.2523 18.006 10.6665 18.006C11.0807 18.006 11.4165 17.6702 11.4165 17.256H10.6665H9.91651ZM10.6665 15.0586H11.4165L11.4165 15.0577L10.6665 15.0586ZM11.9476 11.9552L12.4785 12.4849V12.4849L11.9476 11.9552ZM15.0478 10.6666V9.91663L15.0469 9.91663L15.0478 10.6666ZM29.0478 10.6666L29.0488 9.91663H29.0478V10.6666ZM32.1481 11.9552L31.6171 12.4849V12.4849L32.1481 11.9552ZM33.4292 15.0586L32.6792 15.0577V15.0586H33.4292ZM32.6792 17.256C32.6792 17.6702 33.015 18.006 33.4292 18.006C33.8434 18.006 34.1792 17.6702 34.1792 17.256H33.4292H32.6792ZM10.6665 16.506C10.2523 16.506 9.91651 16.8417 9.91651 17.256C9.91651 17.6702 10.2523 18.006 10.6665 18.006V17.256V16.506ZM33.4292 18.006C33.8434 18.006 34.1792 17.6702 34.1792 17.256C34.1792 16.8417 33.8434 16.506 33.4292 16.506V17.256V18.006ZM10.6665 17.256H9.91651V46.2746H10.6665H11.4165V17.256H10.6665ZM10.6665 46.2746L9.91651 46.2737C9.91485 47.636 10.4544 48.9432 11.4166 49.9077L11.9476 49.378L12.4785 48.8483C11.7974 48.1655 11.4153 47.24 11.4165 46.2755L10.6665 46.2746ZM11.9476 49.378L11.4166 49.9077C12.3787 50.8722 13.6846 51.415 15.0469 51.4166L15.0478 50.6666L15.0488 49.9166C14.0842 49.9155 13.1597 49.5312 12.4785 48.8483L11.9476 49.378ZM15.0478 50.6666V51.4166H48.9518V50.6666V49.9166H15.0478V50.6666ZM48.9518 50.6666L48.9528 51.4166C50.3151 51.415 51.621 50.8722 52.5831 49.9077L52.0521 49.378L51.5211 48.8483C50.84 49.5312 49.9154 49.9155 48.9509 49.9166L48.9518 50.6666ZM52.0521 49.378L52.5831 49.9077C53.5452 48.9432 54.0848 47.636 54.0832 46.2737L53.3332 46.2746L52.5832 46.2755C52.5844 47.24 52.2023 48.1655 51.5211 48.8483L52.0521 49.378ZM53.3332 46.2746H54.0832V21.648H53.3332H52.5832V46.2746H53.3332ZM53.3332 21.648L54.0832 21.6489C54.0848 20.2865 53.5452 18.9794 52.5831 18.0149L52.0521 18.5446L51.5211 19.0742C52.2023 19.7571 52.5844 20.6825 52.5832 21.647L53.3332 21.648ZM52.0521 18.5446L52.5831 18.0149C51.621 17.0504 50.3151 16.5076 48.9528 16.506L48.9518 17.256L48.9509 18.006C49.9154 18.0071 50.84 18.3914 51.5211 19.0742L52.0521 18.5446ZM48.9518 17.256V16.506H33.4292V17.256V18.006H48.9518V17.256ZM10.6665 17.256H11.4165V15.0586H10.6665H9.91651V17.256H10.6665ZM10.6665 15.0586L11.4165 15.0577C11.4153 14.0932 11.7974 13.1677 12.4785 12.4849L11.9476 11.9552L11.4166 11.4255C10.4544 12.39 9.91485 13.6972 9.91651 15.0595L10.6665 15.0586ZM11.9476 11.9552L12.4785 12.4849C13.1597 11.8021 14.0842 11.4178 15.0488 11.4166L15.0478 10.6666L15.0469 9.91663C13.6846 9.91828 12.3787 10.4611 11.4166 11.4255L11.9476 11.9552ZM15.0478 10.6666V11.4166H29.0478V10.6666V9.91663H15.0478V10.6666ZM29.0478 10.6666L29.0469 11.4166C30.0114 11.4178 30.936 11.8021 31.6171 12.4849L32.1481 11.9552L32.6791 11.4255C31.717 10.4611 30.4111 9.91828 29.0488 9.91663L29.0478 10.6666ZM32.1481 11.9552L31.6171 12.4849C32.2983 13.1677 32.6803 14.0932 32.6792 15.0577L33.4292 15.0586L34.1792 15.0595C34.1808 13.6972 33.6412 12.39 32.6791 11.4255L32.1481 11.9552ZM33.4292 15.0586H32.6792V17.256H33.4292H34.1792V15.0586H33.4292ZM10.6665 17.256V18.006H33.4292V17.256V16.506H10.6665V17.256Z" fill="#9EF2FF"/>
</svg>
