<svg width="464" height="648" viewBox="0 0 464 648" fill="none" xmlns="http://www.w3.org/2000/svg">
<g style="mix-blend-mode:overlay">
<path d="M236.392 272.303L239.479 274.07C237.764 273.089 235.706 271.91 233.918 270.659C234.677 271.321 235.436 271.984 236.392 272.303Z" fill="white"/>
<path d="M419.978 366.03C449.278 380.075 483.861 377.335 510.935 358.683L566.553 320.4C599.242 297.905 585.316 246.67 545.811 244.087L375.904 232.642L448.994 339.611C453.831 357.408 436.442 372.27 420.247 365.957L419.978 366.03Z" fill="white" fill-opacity="0.24"/>
<path d="M229.916 283.618C229.916 283.618 228.202 282.636 227.246 282.316C229.23 283.225 230.945 284.207 233.003 285.385L229.916 283.618Z" fill="white"/>
<path d="M400.146 424.127L270.896 415.241L366.774 555.978C389.269 588.667 440.307 575.084 443.087 535.236L447.948 467.891C450.33 435.101 434.916 403.962 408.242 385.729C421.884 396.5 417.87 419.02 400.073 423.857L400.146 424.127Z" fill="white" fill-opacity="0.24"/>
<path d="M405.429 383.885L402.343 382.118C404.058 383.1 406.115 384.278 407.903 385.529C407.144 384.867 406.385 384.205 405.429 383.885Z" fill="white"/>
<path d="M100.994 403.797L270.901 415.242L400.15 424.127C417.947 419.29 421.962 396.77 408.32 385.999C406.532 384.748 404.817 383.766 402.759 382.588L364.692 360.792L271.067 307.185L233 285.388C231.285 284.406 229.228 283.228 227.243 282.32C197.944 268.276 163.36 271.015 136.287 289.667L80.6685 327.95C47.9794 350.445 61.905 401.68 101.41 404.263L100.994 403.797Z" fill="white"/>
<path d="M408.898 371.073L411.985 372.84C411.985 372.84 413.7 373.822 414.655 374.141C412.671 373.233 410.956 372.251 408.898 371.073Z" fill="white"/>
<path d="M419.293 365.64C435.488 371.953 452.877 357.091 448.04 339.294L374.95 232.325L279.072 91.589C256.577 58.9 205.539 72.4826 202.76 112.331L197.898 179.676C195.517 212.466 210.93 243.605 237.604 261.837C239.392 263.089 241.107 264.071 243.164 265.249L281.232 287.045L374.857 340.652L412.924 362.449C414.638 363.43 416.696 364.609 418.681 365.517L419.293 365.64Z" fill="white"/>
</g>
</svg>
