<svg width="16" height="16" viewBox="0 0 16 16" fill="none" xmlns="http://www.w3.org/2000/svg">
<path fill-rule="evenodd" clip-rule="evenodd" d="M4.77086 14.747C2.63994 14.8139 0.85629 13.1447 0.781865 11.014V7.28L0.776865 5.414C0.648414 4.73798 0.989522 4.05986 1.60887 3.76L5.65387 1.347C6.95296 0.551 8.58877 0.551 9.88787 1.347L13.9329 3.763C14.5522 4.06286 14.8933 4.74098 14.7649 5.417L14.7599 7.284V11.017C14.6838 13.1465 12.9007 14.8139 10.7709 14.747H4.77086Z" stroke="white" stroke-width="1.5" stroke-linecap="round" stroke-linejoin="round"/>
<path d="M1.15582 4.76651C0.798217 4.55748 0.338872 4.67793 0.129845 5.03553C-0.0791825 5.39314 0.0412628 5.85248 0.398867 6.06151L0.777344 5.41401L1.15582 4.76651ZM5.68734 8.28401L6.07234 7.64032L6.06582 7.63651L5.68734 8.28401ZM9.85434 8.28401L9.47585 7.63648L9.46937 7.64035L9.85434 8.28401ZM15.1428 6.06151C15.5004 5.85248 15.6209 5.39314 15.4118 5.03553C15.2028 4.67793 14.7435 4.55748 14.3859 4.76651L14.7643 5.41401L15.1428 6.06151ZM9.58944 5.47462C9.99129 5.57508 10.3985 5.33076 10.499 4.92891C10.5994 4.52706 10.3551 4.11986 9.95325 4.0194L9.77134 4.74701L9.58944 5.47462ZM7.77134 4.24701L7.95325 3.5194C7.83382 3.48954 7.70887 3.48954 7.58944 3.5194L7.77134 4.24701ZM5.58944 4.0194C5.1876 4.11986 4.94328 4.52706 5.04374 4.92891C5.1442 5.33076 5.5514 5.57508 5.95325 5.47462L5.77134 4.74701L5.58944 4.0194ZM0.777344 5.41401L0.398867 6.06151L5.30887 8.93151L5.68734 8.28401L6.06582 7.63651L1.15582 4.76651L0.777344 5.41401ZM5.68734 8.28401L5.30237 8.92766C6.82244 9.83684 8.71924 9.83684 10.2393 8.92766L9.85434 8.28401L9.46937 7.64035C8.42342 8.26594 7.11826 8.26594 6.07232 7.64035L5.68734 8.28401ZM9.85434 8.28401L10.2328 8.93151L15.1428 6.06151L14.7643 5.41401L14.3859 4.76651L9.47587 7.63651L9.85434 8.28401ZM9.77134 4.74701L9.95325 4.0194L7.95325 3.5194L7.77134 4.24701L7.58944 4.97462L9.58944 5.47462L9.77134 4.74701ZM7.77134 4.24701L7.58944 3.5194L5.58944 4.0194L5.77134 4.74701L5.95325 5.47462L7.95325 4.97462L7.77134 4.24701Z" fill="white"/>
</svg>
