<svg width="39" height="39" viewBox="0 0 39 39" fill="none" xmlns="http://www.w3.org/2000/svg">
<path d="M3.20599 25.668C3.31834 25.2693 3.08623 24.8551 2.68754 24.7427C2.28886 24.6304 1.87458 24.8625 1.76222 25.2612L2.48411 25.4646L3.20599 25.668ZM0.860106 31.2273L0.138224 31.0238C0.130396 31.0516 0.124178 31.0798 0.1196 31.1083L0.860106 31.2273ZM3.52677 36.1019L3.41055 36.8429C3.44759 36.8487 3.48501 36.8517 3.5225 36.8519L3.52677 36.1019ZM12.8148 33.1526L12.4231 32.513C12.4079 32.5223 12.3931 32.5321 12.3786 32.5425L12.8148 33.1526ZM24.6068 23.6833L24.0774 23.1519C24.0739 23.1555 24.0703 23.1591 24.0669 23.1627L24.6068 23.6833ZM33.6734 11.8993L33.0585 11.4699C33.0463 11.4874 33.0349 11.5053 33.0242 11.5238L33.6734 11.8993ZM35.9934 3.02192L36.7398 2.94832C36.7353 2.90227 36.7265 2.85673 36.7135 2.8123L35.9934 3.02192ZM30.5374 0.99259L30.3725 0.260949C30.3449 0.267173 30.3177 0.274954 30.2909 0.284255L30.5374 0.99259ZM25.6243 1.90826C25.2331 2.04439 25.0263 2.47189 25.1624 2.86309C25.2986 3.25429 25.7261 3.46106 26.1173 3.32492L25.8708 2.61659L25.6243 1.90826ZM25.8708 2.61659L25.6228 3.32442L25.6237 3.32473L25.8708 2.61659ZM5.2641 8.86004L5.86321 9.31122L5.2641 8.86004ZM4.95544 30.3896L5.56724 29.9557V29.9557L4.95544 30.3896ZM25.3747 37.2212L25.1471 36.5066H25.1471L25.3747 37.2212ZM38.0841 19.8406L37.3341 19.8395L37.3341 19.8404L38.0841 19.8406ZM2.48411 25.4646L1.76222 25.2612L0.138224 31.0238L0.860106 31.2273L1.58199 31.4307L3.20599 25.668L2.48411 25.4646ZM0.860106 31.2273L0.1196 31.1083C-0.119996 32.5998 -0.0106829 33.9216 0.550292 34.9482C1.12993 36.009 2.12991 36.642 3.41055 36.8429L3.52677 36.1019L3.643 35.361C2.74763 35.2205 2.18895 34.8189 1.86659 34.229C1.52556 33.6049 1.38954 32.6601 1.60061 31.3462L0.860106 31.2273ZM3.52677 36.1019L3.5225 36.8519C7.00963 36.8718 10.4141 35.7907 13.2509 33.7627L12.8148 33.1526L12.3786 32.5425C9.79863 34.3868 6.70242 35.37 3.53105 35.3519L3.52677 36.1019ZM12.8148 33.1526L13.2065 33.7922C17.5771 31.1154 21.5894 27.8934 25.1467 24.2038L24.6068 23.6833L24.0669 23.1627C20.5978 26.7607 16.6852 29.9027 12.4231 32.513L12.8148 33.1526ZM24.6068 23.6833L25.1361 24.2146C28.7091 20.6551 31.7978 16.6407 34.3227 12.2747L33.6734 11.8993L33.0242 11.5238C30.5653 15.7757 27.5572 19.6854 24.0774 23.1519L24.6068 23.6833ZM33.6734 11.8993L34.2884 12.3286C36.1977 9.59411 37.0671 6.26735 36.7398 2.94832L35.9934 3.02192L35.2471 3.09553C35.5393 6.05863 34.7631 9.02862 33.0585 11.4699L33.6734 11.8993ZM35.9934 3.02192L36.7135 2.8123C36.3613 1.60227 35.5713 0.740913 34.4201 0.312375C33.3086 -0.101356 31.9259 -0.0892379 30.3725 0.260949L30.5374 0.99259L30.7024 1.72423C32.1063 1.40775 33.1636 1.4452 33.8968 1.71814C34.5902 1.97627 35.0496 2.46291 35.2733 3.23155L35.9934 3.02192ZM30.5374 0.99259L30.2909 0.284255L25.6243 1.90826L25.8708 2.61659L26.1173 3.32492L30.7839 1.70092L30.5374 0.99259ZM25.8708 2.61659L26.1187 1.90876C18.315 -0.82492 9.63924 1.80367 4.66499 8.40886L5.2641 8.86004L5.86321 9.31122C10.4447 3.22762 18.4353 0.806604 25.6228 3.32442L25.8708 2.61659ZM5.2641 8.86004L4.66499 8.40886C-0.309272 15.0141 -0.439223 24.0783 4.34363 30.8234L4.95544 30.3896L5.56724 29.9557C1.16206 23.7433 1.28175 15.3948 5.86321 9.31122L5.2641 8.86004ZM4.95544 30.3896L4.34363 30.8234C9.12649 37.5685 17.7233 40.4447 25.6022 37.9358L25.3747 37.2212L25.1471 36.5066C17.8903 38.8173 9.97241 36.1682 5.56724 29.9557L4.95544 30.3896ZM25.3747 37.2212L25.6022 37.9358C33.4812 35.427 38.832 28.1095 38.8341 19.8408L38.0841 19.8406L37.3341 19.8404C37.3322 27.4562 32.4039 34.1958 25.1471 36.5066L25.3747 37.2212ZM38.0841 19.8406L38.8341 19.8417C38.8462 11.7661 33.7427 4.56878 26.1178 1.90845L25.8708 2.61659L25.6237 3.32473C32.6454 5.77462 37.3453 12.4026 37.3341 19.8395L38.0841 19.8406Z" fill="#9EF2FF"/>
</svg>
