<svg width="31" height="31" viewBox="0 0 31 31" fill="none" xmlns="http://www.w3.org/2000/svg">
<g clip-path="url(#clip0_124_189)">
<path d="M15.5 0C6.93966 0 0 6.93966 0 15.5C0 22.7689 5.00464 28.8684 11.7558 30.5437V20.2368H8.55972V15.5H11.7558V13.459C11.7558 8.18338 14.1434 5.7381 19.3229 5.7381C20.305 5.7381 21.9995 5.93092 22.6926 6.12312V10.4166C22.3268 10.3782 21.6913 10.359 20.9021 10.359C18.3607 10.359 17.3786 11.3218 17.3786 13.8248V15.5H22.4415L21.5717 20.2368H17.3786V30.8865C25.0536 29.9596 31.0006 23.4248 31.0006 15.5C31 6.93966 24.0603 0 15.5 0Z" fill="black"/>
</g>
<defs>
<clipPath id="clip0_124_189">
<rect width="31" height="31" fill="white"/>
</clipPath>
</defs>
</svg>
