<svg width="64" height="64" viewBox="0 0 64 64" fill="none" xmlns="http://www.w3.org/2000/svg">
<path fill-rule="evenodd" clip-rule="evenodd" d="M39 32C39 35.866 35.866 39 32 39C28.134 39 25 35.866 25 32C25 28.134 28.134 25 32 25C35.866 25 39 28.134 39 32Z" stroke="#9EF2FF" stroke-width="1.5" stroke-linecap="round" stroke-linejoin="round"/>
<path d="M50.6668 32.75C51.081 32.75 51.4168 32.4143 51.4168 32C51.4168 31.5858 51.081 31.25 50.6668 31.25V32V32.75ZM46.0002 31.25C45.5859 31.25 45.2502 31.5858 45.2502 32C45.2502 32.4143 45.5859 32.75 46.0002 32.75V32V31.25ZM18.0002 32.75C18.4144 32.75 18.7502 32.4143 18.7502 32C18.7502 31.5858 18.4144 31.25 18.0002 31.25V32V32.75ZM13.3335 31.25C12.9193 31.25 12.5835 31.5858 12.5835 32C12.5835 32.4143 12.9193 32.75 13.3335 32.75V32V31.25ZM32.7502 13.3334C32.7502 12.9192 32.4144 12.5834 32.0002 12.5834C31.5859 12.5834 31.2502 12.9192 31.2502 13.3334H32.0002H32.7502ZM31.2502 18C31.2502 18.4143 31.5859 18.75 32.0002 18.75C32.4144 18.75 32.7502 18.4143 32.7502 18H32.0002H31.2502ZM32.7502 46C32.7502 45.5858 32.4144 45.25 32.0002 45.25C31.5859 45.25 31.2502 45.5858 31.2502 46H32.0002H32.7502ZM31.2502 50.6667C31.2502 51.0809 31.5859 51.4167 32.0002 51.4167C32.4144 51.4167 32.7502 51.0809 32.7502 50.6667H32.0002H31.2502ZM45.7305 19.3304C46.0234 19.0375 46.0234 18.5626 45.7305 18.2697C45.4376 17.9768 44.9627 17.9768 44.6698 18.2697L45.2002 18.8L45.7305 19.3304ZM41.3685 21.571C41.0756 21.8639 41.0756 22.3388 41.3685 22.6317C41.6614 22.9246 42.1363 22.9246 42.4292 22.6317L41.8988 22.1014L41.3685 21.571ZM22.6318 42.429C22.9247 42.1361 22.9247 41.6613 22.6318 41.3684C22.3389 41.0755 21.8641 41.0755 21.5712 41.3684L22.1015 41.8987L22.6318 42.429ZM18.2698 44.6697C17.9769 44.9626 17.9769 45.4375 18.2698 45.7304C18.5627 46.0233 19.0376 46.0233 19.3305 45.7304L18.8002 45.2L18.2698 44.6697ZM19.3305 18.2697C19.0376 17.9768 18.5627 17.9768 18.2698 18.2697C17.9769 18.5626 17.9769 19.0375 18.2698 19.3304L18.8002 18.8L19.3305 18.2697ZM21.5712 22.6317C21.8641 22.9246 22.3389 22.9246 22.6318 22.6317C22.9247 22.3388 22.9247 21.8639 22.6318 21.571L22.1015 22.1014L21.5712 22.6317ZM42.4318 41.371C42.1389 41.0782 41.6641 41.0782 41.3712 41.371C41.0783 41.6639 41.0783 42.1388 41.3712 42.4317L41.9015 41.9014L42.4318 41.371ZM44.6698 45.7304C44.9627 46.0233 45.4376 46.0233 45.7305 45.7304C46.0234 45.4375 46.0234 44.9626 45.7305 44.6697L45.2002 45.2L44.6698 45.7304ZM50.6668 32V31.25H46.0002V32V32.75H50.6668V32ZM18.0002 32V31.25H13.3335V32V32.75H18.0002V32ZM32.0002 13.3334H31.2502V18H32.0002H32.7502V13.3334H32.0002ZM32.0002 46H31.2502V50.6667H32.0002H32.7502V46H32.0002ZM45.2002 18.8L44.6698 18.2697L41.3685 21.571L41.8988 22.1014L42.4292 22.6317L45.7305 19.3304L45.2002 18.8ZM22.1015 41.8987L21.5712 41.3684L18.2698 44.6697L18.8002 45.2L19.3305 45.7304L22.6318 42.429L22.1015 41.8987ZM18.8002 18.8L18.2698 19.3304L21.5712 22.6317L22.1015 22.1014L22.6318 21.571L19.3305 18.2697L18.8002 18.8ZM41.9015 41.9014L41.3712 42.4317L44.6698 45.7304L45.2002 45.2L45.7305 44.6697L42.4318 41.371L41.9015 41.9014Z" fill="#9EF2FF"/>
</svg>
