<svg width="31" height="22" viewBox="0 0 31 22" fill="none" xmlns="http://www.w3.org/2000/svg">
<path d="M30.6912 4.70449C30.6912 4.70449 30.3885 2.56719 29.4561 1.62871C28.2754 0.393555 26.9555 0.3875 26.35 0.314844C22.0148 -1.73226e-07 15.5061 0 15.5061 0H15.4939C15.4939 0 8.98516 -1.73226e-07 4.65 0.314844C4.04453 0.3875 2.72461 0.393555 1.54395 1.62871C0.611523 2.56719 0.314844 4.70449 0.314844 4.70449C0.314844 4.70449 0 7.21719 0 9.72383V12.073C0 14.5797 0.308789 17.0924 0.308789 17.0924C0.308789 17.0924 0.611523 19.2297 1.53789 20.1682C2.71855 21.4033 4.26855 21.3609 4.95879 21.4941C7.44121 21.7303 15.5 21.8029 15.5 21.8029C15.5 21.8029 22.0148 21.7908 26.35 21.482C26.9555 21.4094 28.2754 21.4033 29.4561 20.1682C30.3885 19.2297 30.6912 17.0924 30.6912 17.0924C30.6912 17.0924 31 14.5857 31 12.073V9.72383C31 7.21719 30.6912 4.70449 30.6912 4.70449ZM12.2971 14.9248V6.21211L20.6707 10.5836L12.2971 14.9248Z" fill="black"/>
</svg>
