<svg width="176" height="44" viewBox="0 0 176 44" fill="none" xmlns="http://www.w3.org/2000/svg">
<g clip-path="url(#clip0_124_428)">
<path d="M113.28 26.11V15.79H115.36V26.11H113.28Z" fill="#9EF2FF"/>
<path d="M123.72 22.27V26.11H121.76V22.38C121.76 21.29 121.1 20.79 120.43 20.79C119.76 20.79 118.86 21.16 118.86 22.44V26.11H116.9V19.11H118.86V20.25C119.19 19.34 120.28 18.93 120.96 18.93C122.79 18.93 123.75 20.17 123.73 22.27H123.72Z" fill="#9EF2FF"/>
<path d="M124.57 23.91H126.41C126.41 24.31 126.75 24.75 127.44 24.75C128.01 24.75 128.44 24.47 128.44 24.06C128.44 23.76 128.2 23.61 127.68 23.48L126.75 23.26C124.95 22.78 124.71 21.78 124.71 21.04C124.71 19.96 125.83 18.94 127.45 18.94C128.72 18.94 130.22 19.55 130.21 21.22H128.34C128.34 20.74 127.95 20.49 127.49 20.49C127.03 20.49 126.68 20.74 126.68 21.1C126.68 21.43 126.98 21.59 127.37 21.7L128.52 22C130.2 22.45 130.41 23.5 130.41 24.07C130.41 25.54 128.91 26.3 127.47 26.3C126.03 26.3 124.58 25.46 124.56 23.92L124.57 23.91Z" fill="#9EF2FF"/>
<path d="M136.14 19.11H138.1V26.11H136.14V24.97C135.84 25.88 134.73 26.29 134.04 26.29C132.21 26.29 131.25 25.06 131.27 22.96V19.11H133.23V22.86C133.23 23.95 133.89 24.46 134.56 24.46C135.23 24.46 136.13 24.07 136.13 22.81V19.11H136.14Z" fill="#9EF2FF"/>
<path d="M144.59 19.16L144.14 21.03C143.72 20.81 143.38 20.78 143.14 20.78C142.14 20.78 141.45 21.72 141.45 23.72V26.12H139.49V19.12H141.44V20.62C141.83 19.45 142.62 18.94 143.49 18.94C143.87 18.94 144.28 19 144.6 19.16H144.59Z" fill="#9EF2FF"/>
<path d="M150.09 19.11H152.05V26.11H150.09V25.11C149.63 25.83 148.73 26.29 147.78 26.29C145.85 26.29 144.41 24.79 144.41 22.62C144.41 20.45 145.82 18.93 147.83 18.93C148.73 18.93 149.63 19.32 150.09 20.04V19.11ZM150.03 22.62C150.03 21.56 149.18 20.76 148.2 20.76C147.22 20.76 146.42 21.6 146.42 22.62C146.42 23.64 147.18 24.46 148.22 24.46C149.26 24.46 150.03 23.62 150.03 22.62Z" fill="#9EF2FF"/>
<path d="M160.26 22.27V26.11H158.3V22.38C158.3 21.29 157.64 20.79 156.97 20.79C156.3 20.79 155.4 21.16 155.4 22.44V26.11H153.44V19.11H155.4V20.25C155.73 19.34 156.82 18.93 157.5 18.93C159.33 18.93 160.29 20.17 160.27 22.27H160.26Z" fill="#9EF2FF"/>
<path d="M161.11 22.59C161.11 20.37 162.91 18.93 164.95 18.93C166.22 18.93 167.24 19.51 167.9 20.43L166.42 21.46C166.11 21.03 165.52 20.76 164.97 20.76C163.86 20.76 163.11 21.57 163.11 22.59C163.11 23.61 163.86 24.46 164.97 24.46C165.52 24.46 166.11 24.19 166.42 23.76L167.9 24.79C167.24 25.7 166.22 26.29 164.95 26.29C162.91 26.29 161.11 24.81 161.11 22.59Z" fill="#9EF2FF"/>
<path d="M175.48 23.25H170.22C170.43 24.07 171.09 24.55 172.02 24.55C172.74 24.55 173.43 24.22 173.86 23.73L175 24.88C174.34 25.76 173.13 26.29 171.9 26.29C169.74 26.29 168.17 24.78 168.17 22.62C168.17 20.46 169.89 18.93 171.89 18.93C173.89 18.93 175.53 20.35 175.53 22.5C175.53 22.69 175.52 22.93 175.49 23.25H175.48ZM173.55 21.97C173.49 21.15 172.82 20.62 171.93 20.62C171.12 20.62 170.43 21.02 170.22 21.97H173.55Z" fill="#9EF2FF"/>
<path d="M119.69 39.1L118.85 36.63H114.98L114.16 39.1H111.94L115.79 28.78H118.04L121.88 39.1H119.69ZM115.6 34.81H118.24L116.92 30.9L115.6 34.81Z" fill="#9EF2FF"/>
<path d="M127.41 32.1H129.37V38.23C129.37 41.29 127.83 42.71 125.35 42.71C123.85 42.71 122.55 41.87 121.95 40.57L123.58 39.87C123.88 40.51 124.6 40.96 125.35 40.96C126.61 40.96 127.4 40.26 127.4 38.44V38.25C126.89 38.94 125.93 39.28 125.15 39.28C123.35 39.28 121.72 37.84 121.72 35.59C121.72 33.34 123.35 31.92 125.15 31.92C125.94 31.92 126.89 32.25 127.4 32.94V32.1H127.41ZM127.35 35.59C127.35 34.51 126.45 33.75 125.54 33.75C124.55 33.75 123.73 34.56 123.73 35.59C123.73 36.62 124.55 37.45 125.54 37.45C126.53 37.45 127.35 36.66 127.35 35.59Z" fill="#9EF2FF"/>
<path d="M137.64 36.24H132.38C132.59 37.06 133.25 37.54 134.18 37.54C134.9 37.54 135.59 37.21 136.02 36.72L137.16 37.87C136.5 38.75 135.29 39.28 134.06 39.28C131.9 39.28 130.33 37.77 130.33 35.61C130.33 33.45 132.05 31.92 134.05 31.92C136.05 31.92 137.69 33.34 137.69 35.49C137.69 35.68 137.67 35.92 137.65 36.24H137.64ZM135.7 34.96C135.64 34.14 134.97 33.61 134.08 33.61C133.27 33.61 132.58 34.01 132.37 34.96H135.7Z" fill="#9EF2FF"/>
<path d="M145.43 35.26V39.1H143.47V35.37C143.47 34.28 142.81 33.78 142.14 33.78C141.47 33.78 140.57 34.15 140.57 35.43V39.1H138.61V32.1H140.57V33.24C140.9 32.33 141.99 31.92 142.67 31.92C144.5 31.92 145.46 33.16 145.44 35.26H145.43Z" fill="#9EF2FF"/>
<path d="M146.28 35.58C146.28 33.36 148.08 31.92 150.12 31.92C151.39 31.92 152.41 32.5 153.07 33.42L151.59 34.45C151.28 34.02 150.69 33.75 150.14 33.75C149.03 33.75 148.28 34.56 148.28 35.58C148.28 36.6 149.03 37.45 150.14 37.45C150.69 37.45 151.28 37.18 151.59 36.75L153.07 37.78C152.41 38.69 151.39 39.28 150.12 39.28C148.08 39.28 146.28 37.8 146.28 35.58Z" fill="#9EF2FF"/>
<path d="M158.36 32.1H160.47L156.15 42.53H154.05L155.71 38.44L152.94 32.1H155.1L156.75 36.15L158.35 32.1H158.36Z" fill="#9EF2FF"/>
<path d="M0 42.84V12.72H8.45V42.84H0Z" fill="#9EF2FF"/>
<path d="M12.5098 33.36H20.4398C20.4398 35.1 21.9198 36.97 24.8898 36.97C27.3398 36.97 29.2098 35.74 29.2098 34C29.2098 32.71 28.1798 32.07 25.9198 31.48L21.9198 30.51C14.1798 28.45 13.1498 24.13 13.1498 20.96C13.1498 16.32 17.9898 11.93 24.9498 11.93C30.4298 11.93 36.8798 14.57 36.8198 21.73H28.7598C28.7598 19.67 27.0798 18.57 25.0798 18.57C23.0798 18.57 21.5998 19.67 21.5998 21.21C21.5998 22.63 22.8898 23.34 24.5698 23.79L29.5398 25.08C36.7598 27.01 37.6698 31.53 37.6698 33.98C37.6698 40.3 31.2198 43.59 25.0298 43.59C18.8398 43.59 12.5798 39.98 12.5198 33.34L12.5098 33.36Z" fill="#9EF2FF"/>
<path d="M71.3999 30.52H48.7599C49.6599 34.07 52.4999 36.13 56.4999 36.13C59.5999 36.13 62.5599 34.71 64.4299 32.58L69.3299 37.55C66.4899 41.36 61.2699 43.61 55.9799 43.61C46.6899 43.61 39.9199 37.1 39.9199 27.81C39.9199 18.52 47.3399 11.95 55.9099 11.95C64.4799 11.95 71.5799 18.08 71.5799 27.3C71.5799 28.14 71.5199 29.17 71.3899 30.52H71.3999ZM63.0799 25.04C62.8199 21.49 59.9199 19.24 56.1199 19.24C52.6399 19.24 49.6699 20.98 48.7699 25.04H63.0899H63.0799Z" fill="#9EF2FF"/>
<path d="M73.6602 27.69C73.6602 18.15 81.4002 11.95 90.1702 11.95C95.6502 11.95 100.04 14.46 102.88 18.4L96.5002 22.85C95.1502 20.98 92.6301 19.82 90.2402 19.82C85.4701 19.82 82.2402 23.3 82.2402 27.69C82.2402 32.08 85.4601 35.75 90.2402 35.75C92.6301 35.75 95.1402 34.59 96.5002 32.72L102.88 37.17C100.04 41.1 95.6602 43.62 90.1702 43.62C81.4002 43.62 73.6602 37.24 73.6602 27.69Z" fill="#9EF2FF"/>
<path d="M103.52 6.83L103.61 6.92C103.56 6.87 103.5 6.81 103.45 6.75C103.47 6.78 103.49 6.81 103.52 6.83Z" fill="#9EF2FF"/>
<path d="M108.98 11.79C109.86 12.55 111.08 12.78 112.19 12.39L114.47 11.59C115.81 11.12 115.81 9.22 114.47 8.76L108.71 6.77L110.23 11.15C110.23 11.81 109.49 12.16 108.99 11.79H108.98Z" fill="white"/>
<path d="M103.19 7.16C103.19 7.16 103.14 7.11 103.11 7.09C103.17 7.14 103.22 7.19 103.28 7.25L103.19 7.16Z" fill="#9EF2FF"/>
<path d="M107.75 13.61L103.37 12.09L105.36 17.85C105.83 19.19 107.72 19.2 108.19 17.85L108.99 15.57C109.38 14.46 109.14 13.24 108.39 12.36C108.76 12.86 108.41 13.6 107.75 13.6V13.61Z" fill="white"/>
<path d="M108.31 12.27L108.22 12.18C108.27 12.23 108.33 12.29 108.38 12.35C108.36 12.32 108.34 12.29 108.31 12.27Z" fill="#9EF2FF"/>
<path d="M97.6102 10.1L103.37 12.09L107.75 13.61C108.41 13.61 108.76 12.87 108.39 12.37C108.34 12.31 108.29 12.26 108.23 12.2L107.12 11.09L104.39 8.36L103.28 7.25C103.23 7.2 103.17 7.14 103.11 7.09C102.23 6.33 101.01 6.1 99.9002 6.49L97.6202 7.29C96.2802 7.76 96.2802 9.66 97.6202 10.12L97.6102 10.1Z" fill="#9EF2FF"/>
<path d="M108.55 11.86L108.64 11.95C108.64 11.95 108.69 12 108.72 12.02C108.66 11.97 108.61 11.92 108.55 11.86Z" fill="#9EF2FF"/>
<path d="M108.96 11.77C109.46 12.14 110.2 11.79 110.2 11.13L108.68 6.75L106.69 0.99C106.22 -0.35 104.33 -0.36 103.86 0.99L103.06 3.27C102.67 4.38 102.91 5.6 103.66 6.48C103.71 6.54 103.76 6.59 103.82 6.65L104.93 7.76L107.66 10.49L108.77 11.6C108.82 11.65 108.88 11.71 108.94 11.76L108.96 11.77Z" fill="#9EF2FF"/>
</g>
<defs>
<clipPath id="clip0_124_428">
<rect width="175.52" height="43.62" fill="white"/>
</clipPath>
</defs>
</svg>
